<?xml version="1.0" encoding="UTF-8" standalone="no"?>
<!DOCTYPE svg PUBLIC "-//W3C//DTD SVG 1.1//EN" "http://www.w3.org/Graphics/SVG/1.1/DTD/svg11.dtd">
<svg width="100%" height="100%" viewBox="0 0 1024 1024" version="1.1" xmlns="http://www.w3.org/2000/svg" xmlns:xlink="http://www.w3.org/1999/xlink" xml:space="preserve" xmlns:serif="http://www.serif.com/" style="fill-rule:evenodd;clip-rule:evenodd;stroke-linejoin:round;stroke-miterlimit:2;">
    <style>
        :root {
            --favicon-background: white;
            --favicon-mark: rgb(254,113,86);
        }

        @media (prefers-color-scheme: dark) {
            :root {
                --favicon-background: rgb(254,113,86);
                --favicon-mark: white;
            }
        }
    </style>
    <g transform="matrix(1,0,0,1,-1074,0)">
        <g id="favicon" transform="matrix(1,0,0,1,0,978.5)">
            <rect x="1074" y="-978.5" width="1024" height="1024" style="fill:none;"/>
            <clipPath id="_clip1">
                <rect x="1074" y="-978.5" width="1024" height="1024"/>
            </clipPath>
            <g clip-path="url(#_clip1)">
                <g transform="matrix(1,0,0,1,1074,-1074)">
                    <path d="M768,95.5C835.895,95.5 901.01,122.471 949.019,170.481C997.029,218.49 1024,283.605 1024,351.5L1024,863.5C1024,931.395 997.029,996.51 949.019,1044.519C901.01,1092.529 835.895,1119.5 768,1119.5L256,1119.5C188.105,1119.5 122.99,1092.529 74.981,1044.519C26.971,996.51 -0,931.395 0,863.5L0,351.5C-0,283.605 26.971,218.49 74.981,170.481C122.99,122.471 188.105,95.5 256,95.5L768,95.5Z" style="fill:var(--favicon-background);"/>
                </g>
                <g transform="matrix(0.57485,0,0,0.57485,1291.676647,-1018.0492)">
                    <path d="M152.153,516.573C159.737,515.436 167.454,517.478 173.483,522.217C179.512,526.957 183.318,533.974 184.003,541.612C198.949,709.542 340.202,841.361 512,841.361C683.798,841.361 825.051,709.542 840.045,541.616C840.729,533.992 844.528,526.987 850.547,522.256C856.565,517.524 864.269,515.486 871.839,516.622C918.656,523.594 1007.251,536.884 1049.601,543.236C1063.226,545.28 1073.306,556.984 1073.306,570.761C1073.306,709.425 1073.306,1402.667 1073.306,1402.667L841.361,1402.667L841.361,966.442C748.827,1033.652 635.008,1073.306 512,1073.306C388.992,1073.306 275.173,1033.652 182.639,966.442L182.639,1402.667L-49.306,1402.667L-49.306,570.761C-49.306,556.984 -39.226,545.28 -25.601,543.236C16.749,536.884 105.344,523.594 152.153,516.573Z" style="fill:var(--favicon-mark);"/>
                </g>
            </g>
        </g>
    </g>
</svg>
