<?xml version="1.0" encoding="UTF-8" standalone="no"?>
<!DOCTYPE svg PUBLIC "-//W3C//DTD SVG 1.1//EN" "http://www.w3.org/Graphics/SVG/1.1/DTD/svg11.dtd">
<svg width="100%" height="100%" viewBox="0 0 1024 1024" version="1.1" xmlns="http://www.w3.org/2000/svg" xmlns:xlink="http://www.w3.org/1999/xlink" xml:space="preserve" xmlns:serif="http://www.serif.com/" style="fill-rule:evenodd;clip-rule:evenodd;stroke-linejoin:round;stroke-miterlimit:2;">
    <g transform="matrix(1,0,0,1,-1074,-95.5)">
        <g id="Logo" transform="matrix(0.533333,0,0,0.948148,1074,95.5)">
            <rect x="0" y="0" width="1920" height="1080" style="fill:none;"/>
            <g transform="matrix(1.875,0,0,1.054688,0,-100.722656)">
                <path d="M896,95.5C966.692,95.5 1024,152.808 1024,223.5L1024,991.5C1024,1062.192 966.692,1119.5 896,1119.5L128,1119.5C57.308,1119.5 0,1062.192 0,991.5L0,223.5C0,152.808 57.308,95.5 128,95.5L896,95.5Z" style="fill:rgb(212,236,70);"/>
            </g>
            <g transform="matrix(1.077844,0,0,0.606287,408.143713,-40.419162)">
                <path d="M182.639,512C182.639,693.779 330.221,841.361 512,841.361C693.779,841.361 841.361,693.779 841.361,512L1073.306,546.792L1073.306,1402.667L841.361,1402.667L841.361,966.442C748.827,1033.652 635.008,1073.306 512,1073.306C388.992,1073.306 275.173,1033.652 182.639,966.442L182.639,1402.667L-49.306,1402.667L-49.306,546.792L182.639,512Z"/>
            </g>
        </g>
    </g>
</svg>
