<?xml version="1.0" encoding="UTF-8" standalone="no"?>
<!DOCTYPE svg PUBLIC "-//W3C//DTD SVG 1.1//EN" "http://www.w3.org/Graphics/SVG/1.1/DTD/svg11.dtd">
<svg width="100%" height="100%" viewBox="0 0 1024 1024" version="1.1" xmlns="http://www.w3.org/2000/svg" xmlns:xlink="http://www.w3.org/1999/xlink" xml:space="preserve" xmlns:serif="http://www.serif.com/" style="fill-rule:evenodd;clip-rule:evenodd;stroke-linejoin:round;stroke-miterlimit:2;">
    <g transform="matrix(1,0,0,1,0,-1360.5)">
        <g id="M-black-on-white" serif:id="M black on white" transform="matrix(1,0,0,1,0,191.5)">
            <rect x="0" y="1169" width="1024" height="1024" style="fill:none;"/>
            <g transform="matrix(1,0,0,1,0,1074)">
                <rect x="0" y="95" width="1024" height="1024" style="fill:white;"/>
            </g>
            <g transform="matrix(0.57485,0,0,0.57485,217.676647,1129.4508)">
                <path d="M152.153,516.573C159.737,515.436 167.454,517.478 173.483,522.217C179.512,526.957 183.318,533.974 184.003,541.612C198.949,709.542 340.202,841.361 512,841.361C683.798,841.361 825.051,709.542 840.045,541.616C840.729,533.992 844.528,526.987 850.547,522.256C856.565,517.524 864.269,515.486 871.839,516.622C918.656,523.594 1007.251,536.884 1049.601,543.236C1063.226,545.28 1073.306,556.984 1073.306,570.761C1073.306,709.425 1073.306,1402.667 1073.306,1402.667L841.361,1402.667L841.361,966.442C748.827,1033.652 635.008,1073.306 512,1073.306C388.992,1073.306 275.173,1033.652 182.639,966.442L182.639,1402.667L-49.306,1402.667L-49.306,570.761C-49.306,556.984 -39.226,545.28 -25.601,543.236C16.749,536.884 105.344,523.594 152.153,516.573Z"/>
            </g>
        </g>
    </g>
</svg>
