<?xml version="1.0" encoding="UTF-8" standalone="no"?>
<!DOCTYPE svg PUBLIC "-//W3C//DTD SVG 1.1//EN" "http://www.w3.org/Graphics/SVG/1.1/DTD/svg11.dtd">
<svg width="100%" height="100%" viewBox="0 0 2160 1215" version="1.1" xmlns="http://www.w3.org/2000/svg" xmlns:xlink="http://www.w3.org/1999/xlink" xml:space="preserve" xmlns:serif="http://www.serif.com/" style="fill-rule:evenodd;clip-rule:evenodd;stroke-linejoin:round;stroke-miterlimit:2;">
    <g transform="matrix(1,0,0,1,-2148,0)">
        <g id="Maal-white-on-salmon" serif:id="Maal white on salmon" transform="matrix(2.109375,0,0,1.186523,-117.46875,0)">
            <rect x="1074" y="0" width="1024" height="1024" style="fill:none;"/>
            <clipPath id="_clip1">
                <rect x="1074" y="0" width="1024" height="1024"/>
            </clipPath>
            <g clip-path="url(#_clip1)">
                <g transform="matrix(1,0,0,1,1074,-95.5)">
                    <rect x="0" y="95.5" width="1024" height="1024" style="fill:rgb(254,113,86);"/>
                </g>
                <g transform="matrix(1.104348,0,0,0.888889,-135.505607,53.370593)">
                    <g transform="matrix(0.246772,0,0,0.545043,1190.762628,-9.788068)">
                        <path d="M152.153,516.573C159.737,515.436 167.454,517.478 173.483,522.217C179.512,526.957 183.318,533.974 184.003,541.612C198.949,709.542 340.202,841.361 512,841.361C683.798,841.361 825.051,709.542 840.045,541.616C840.729,533.992 844.528,526.987 850.547,522.256C856.565,517.524 864.269,515.486 871.839,516.622C918.656,523.594 1007.251,536.884 1049.601,543.236C1063.226,545.28 1073.306,556.984 1073.306,570.761C1073.306,709.425 1073.306,1402.667 1073.306,1402.667L841.361,1402.667L841.361,966.442C748.827,1033.652 635.008,1073.306 512,1073.306C388.992,1073.306 275.173,1033.652 182.639,966.442L182.639,1402.667L-49.306,1402.667L-49.306,570.761C-49.306,556.984 -39.226,545.28 -25.601,543.236C16.749,536.884 105.344,523.594 152.153,516.573Z" style="fill:white;"/>
                    </g>
                    <g transform="matrix(0.804899,0,0,1,202.852922,0)">
                        <g transform="matrix(0.835983,0,0,1.486192,210.114713,-420.094681)">
                            <path d="M1768.32,540C1838.965,540 1896.32,597.355 1896.32,668C1896.32,738.645 1838.965,796 1768.32,796C1697.675,796 1640.32,738.645 1640.32,668C1640.32,597.355 1697.675,540 1768.32,540ZM1768.32,625.333C1744.772,625.333 1725.653,644.452 1725.653,668C1725.653,691.548 1744.772,710.667 1768.32,710.667C1791.868,710.667 1810.987,691.548 1810.987,668C1810.987,644.452 1791.868,625.333 1768.32,625.333Z" style="fill:white;"/>
                        </g>
                        <g transform="matrix(0.533333,-0,-0,0.959027,475.228104,-6.570874)">
                            <path d="M2359.667,420.874C2359.667,416.212 2361.747,411.787 2365.353,408.781C2368.959,405.775 2373.722,404.496 2378.37,405.283C2402.053,409.297 2442.266,416.113 2463.037,419.633C2470.718,420.935 2476.333,427.519 2476.333,435.224C2476.333,501.674 2476.333,793.822 2476.333,793.822C2476.333,793.822 2407.629,793.822 2375.667,793.822C2366.83,793.822 2359.667,786.74 2359.667,778.004C2359.667,715.786 2359.667,488.036 2359.667,420.874Z" style="fill:white;"/>
                        </g>
                        <g transform="matrix(0,0.948148,-0.162037,0,1873.365135,-1593.20495)">
                            <path d="M2359.667,412L2476.333,412L2476.333,796L2359.667,796L2359.667,412Z" style="fill:white;"/>
                        </g>
                    </g>
                    <g transform="matrix(0.804899,0,0,1,400.662135,0)">
                        <g transform="matrix(0.835983,0,0,1.486192,210.114713,-420.094681)">
                            <path d="M1768.32,540C1838.965,540 1896.32,597.355 1896.32,668C1896.32,738.645 1838.965,796 1768.32,796C1697.675,796 1640.32,738.645 1640.32,668C1640.32,597.355 1697.675,540 1768.32,540ZM1768.32,625.333C1744.772,625.333 1725.653,644.452 1725.653,668C1725.653,691.548 1744.772,710.667 1768.32,710.667C1791.868,710.667 1810.987,691.548 1810.987,668C1810.987,644.452 1791.868,625.333 1768.32,625.333Z" style="fill:white;"/>
                        </g>
                        <g transform="matrix(0.533333,-0,-0,0.959027,475.228104,-6.570874)">
                            <path d="M2359.667,420.874C2359.667,416.212 2361.747,411.787 2365.353,408.781C2368.959,405.775 2373.722,404.496 2378.37,405.283C2402.053,409.297 2442.266,416.113 2463.037,419.633C2470.718,420.935 2476.333,427.519 2476.333,435.224C2476.333,501.674 2476.333,793.822 2476.333,793.822C2476.333,793.822 2407.629,793.822 2375.667,793.822C2366.83,793.822 2359.667,786.74 2359.667,778.004C2359.667,715.786 2359.667,488.036 2359.667,420.874Z" style="fill:white;"/>
                        </g>
                        <g transform="matrix(0,0.948148,-0.162037,0,1873.365139,-1593.20495)">
                            <path d="M2359.667,412L2476.333,412L2476.333,796L2359.667,796L2359.667,412Z" style="fill:white;"/>
                        </g>
                    </g>
                    <g transform="matrix(0.42928,0,0,0.948148,604.903412,2.088755)">
                        <path d="M2972.503,298.084C2972.485,293.84 2974.153,289.763 2977.141,286.75C2980.129,283.736 2984.191,282.033 2988.434,282.015C3014.083,281.905 3064.118,281.689 3089.767,281.579C3094.01,281.561 3098.087,283.229 3101.101,286.217C3104.114,289.204 3105.817,293.267 3105.836,297.51C3106.208,384.179 3107.97,793.51 3107.97,793.51L2974.638,794.084C2974.638,794.084 2972.876,384.752 2972.503,298.084Z" style="fill:white;"/>
                    </g>
                </g>
            </g>
        </g>
    </g>
</svg>
